<svg aria-roledescription="er" role="graphics-document document" viewBox="0 0 1144.0390625 642.642578125" style="max-width: 1144.04px; background-color: white;" xmlns:xlink="http://www.w3.org/1999/xlink" xmlns="http://www.w3.org/2000/svg" width="100%" id="my-svg"><style>#my-svg{font-family:"trebuchet ms",verdana,arial,sans-serif;font-size:16px;fill:#333;}#my-svg .error-icon{fill:#552222;}#my-svg .error-text{fill:#552222;stroke:#552222;}#my-svg .edge-thickness-normal{stroke-width:1px;}#my-svg .edge-thickness-thick{stroke-width:3.5px;}#my-svg .edge-pattern-solid{stroke-dasharray:0;}#my-svg .edge-thickness-invisible{stroke-width:0;fill:none;}#my-svg .edge-pattern-dashed{stroke-dasharray:3;}#my-svg .edge-pattern-dotted{stroke-dasharray:2;}#my-svg .marker{fill:#333333;stroke:#333333;}#my-svg .marker.cross{stroke:#333333;}#my-svg svg{font-family:"trebuchet ms",verdana,arial,sans-serif;font-size:16px;}#my-svg p{margin:0;}#my-svg .entityBox{fill:#ECECFF;stroke:#9370DB;}#my-svg .attributeBoxOdd{fill:#ffffff;stroke:#9370DB;}#my-svg .attributeBoxEven{fill:#f2f2f2;stroke:#9370DB;}#my-svg .relationshipLabelBox{fill:hsl(80, 100%, 96.2745098039%);opacity:0.7;background-color:hsl(80, 100%, 96.2745098039%);}#my-svg .relationshipLabelBox rect{opacity:0.5;}#my-svg .relationshipLine{stroke:#333333;}#my-svg .entityTitleText{text-anchor:middle;font-size:18px;fill:#333;}#my-svg #MD_PARENT_START{fill:#f5f5f5!important;stroke:#333333!important;stroke-width:1;}#my-svg #MD_PARENT_END{fill:#f5f5f5!important;stroke:#333333!important;stroke-width:1;}#my-svg :root{--mermaid-font-family:"trebuchet ms",verdana,arial,sans-serif;}</style><g/><defs><marker orient="auto" markerHeight="240" markerWidth="190" refY="7" refX="0" id="MD_PARENT_START"><path d="M 18,7 L9,13 L1,7 L9,1 Z"/></marker></defs><defs><marker orient="auto" markerHeight="28" markerWidth="20" refY="7" refX="19" id="MD_PARENT_END"><path d="M 18,7 L9,13 L1,7 L9,1 Z"/></marker></defs><defs><marker orient="auto" markerHeight="18" markerWidth="18" refY="9" refX="0" id="ONLY_ONE_START"><path d="M9,0 L9,18 M15,0 L15,18" fill="none" stroke="gray"/></marker></defs><defs><marker orient="auto" markerHeight="18" markerWidth="18" refY="9" refX="18" id="ONLY_ONE_END"><path d="M3,0 L3,18 M9,0 L9,18" fill="none" stroke="gray"/></marker></defs><defs><marker orient="auto" markerHeight="18" markerWidth="30" refY="9" refX="0" id="ZERO_OR_ONE_START"><circle r="6" cy="9" cx="21" fill="white" stroke="gray"/><path d="M9,0 L9,18" fill="none" stroke="gray"/></marker></defs><defs><marker orient="auto" markerHeight="18" markerWidth="30" refY="9" refX="30" id="ZERO_OR_ONE_END"><circle r="6" cy="9" cx="9" fill="white" stroke="gray"/><path d="M21,0 L21,18" fill="none" stroke="gray"/></marker></defs><defs><marker orient="auto" markerHeight="36" markerWidth="45" refY="18" refX="18" id="ONE_OR_MORE_START"><path d="M0,18 Q 18,0 36,18 Q 18,36 0,18 M42,9 L42,27" fill="none" stroke="gray"/></marker></defs><defs><marker orient="auto" markerHeight="36" markerWidth="45" refY="18" refX="27" id="ONE_OR_MORE_END"><path d="M3,9 L3,27 M9,18 Q27,0 45,18 Q27,36 9,18" fill="none" stroke="gray"/></marker></defs><defs><marker orient="auto" markerHeight="36" markerWidth="57" refY="18" refX="18" id="ZERO_OR_MORE_START"><circle r="6" cy="18" cx="48" fill="white" stroke="gray"/><path d="M0,18 Q18,0 36,18 Q18,36 0,18" fill="none" stroke="gray"/></marker></defs><defs><marker orient="auto" markerHeight="36" markerWidth="57" refY="18" refX="39" id="ZERO_OR_MORE_END"><circle r="6" cy="18" cx="9" fill="white" stroke="gray"/><path d="M21,18 Q39,0 57,18 Q39,36 21,18" fill="none" stroke="gray"/></marker></defs><path style="stroke: gray; fill: none;" marker-start="url(#ONLY_ONE_START)" marker-end="url(#ZERO_OR_MORE_END)" d="M1074.039,99.046L1074.039,109.22C1074.039,119.395,1074.039,139.743,1040.706,163.666C1007.372,187.588,940.706,215.084,907.372,228.833L874.039,242.581" class="er relationshipLine"/><path style="stroke: gray; fill: none;" marker-start="url(#ONLY_ONE_START)" marker-end="url(#ZERO_OR_MORE_END)" d="M734.058,110.092L747.851,118.425C761.643,126.758,789.228,143.425,803.02,160.099C816.813,176.774,816.813,193.456,816.813,201.797L816.813,210.138" class="er relationshipLine"/><path style="stroke: gray; fill: none;" marker-start="url(#ONLY_ONE_START)" marker-end="url(#ZERO_OR_MORE_END)" d="M241.008,87.549L267.872,99.639C294.737,111.73,348.466,135.911,434.896,163.243C521.326,190.575,640.456,221.058,700.021,236.299L759.586,251.541" class="er relationshipLine"/><path style="stroke: gray; fill: none;" marker-start="url(#ONLY_ONE_START)" marker-end="url(#ZERO_OR_MORE_END)" d="M230.782,99.046L242.684,109.22C254.586,119.395,278.391,139.743,290.293,161.925C302.195,184.107,302.195,208.122,302.195,220.13L302.195,232.138" class="er relationshipLine"/><path style="stroke: gray; fill: none;" marker-start="url(#ONLY_ONE_START)" marker-end="url(#ZERO_OR_MORE_END)" d="M683.201,110.092L687.585,118.425C691.969,126.758,700.736,143.425,647.661,166.725C594.586,190.025,479.668,219.957,422.209,234.924L364.75,249.89" class="er relationshipLine"/><path style="stroke: gray; fill: none;" marker-start="url(#ONLY_ONE_START)" marker-end="url(#ZERO_OR_MORE_END)" d="M632.343,110.092L627.319,118.425C622.294,126.758,612.245,143.425,607.22,161.933C602.195,180.44,602.195,200.789,602.195,210.963L602.195,221.138" class="er relationshipLine"/><path style="stroke: gray; fill: none;" marker-start="url(#ONLY_ONE_START)" marker-end="url(#ZERO_OR_MORE_END)" d="M584.949,110.092L571.157,118.425C557.365,126.758,529.78,143.425,455.562,166.936C381.344,190.447,260.492,220.803,200.066,235.98L139.641,251.158" class="er relationshipLine"/><path style="stroke: gray; fill: none;" marker-start="url(#ONLY_ONE_START)" marker-end="url(#ZERO_OR_MORE_END)" d="M151.234,99.046L139.331,109.22C127.429,119.395,103.625,139.743,91.723,158.251C79.82,176.758,79.82,193.425,79.82,201.758L79.82,210.092" class="er relationshipLine"/><path style="stroke: gray; fill: none;" marker-start="url(#ONLY_ONE_START)" marker-end="url(#ZERO_OR_MORE_END)" d="M602.195,311.229L602.195,321.404C602.195,331.578,602.195,351.927,602.195,370.434C602.195,388.942,602.195,405.609,602.195,413.942L602.195,422.275" class="er relationshipLine"/><path style="stroke: gray; fill: none;" marker-start="url(#ONLY_ONE_START)" marker-end="url(#ZERO_OR_MORE_END)" d="M79.82,322.275L79.82,330.609C79.82,338.942,79.82,355.609,152.581,384.861C225.341,414.113,370.862,455.95,443.622,476.869L516.383,497.788" class="er relationshipLine"/><path style="stroke: gray; fill: none;" marker-start="url(#ONLY_ONE_START)" marker-end="url(#ZERO_OR_MORE_END)" d="M1038.267,99.046L1027.562,109.22C1016.858,119.395,995.448,139.743,984.744,167.599C974.039,195.456,974.039,230.82,974.039,266.184C974.039,301.548,974.039,336.911,926.367,373.848C878.695,410.784,783.352,449.292,735.68,468.546L688.008,487.8" class="er relationshipLine"/><g transform="translate(1024.0390625,31.0458984375 )" id="entity-USERS-1e82e395-936c-57a7-8ba9-b08f03574b93"><rect height="68" width="100" y="0" x="0" class="er entityBox"/><text style="dominant-baseline: middle; text-anchor: middle; font-size: 12px;" transform="translate(50,12)" y="0" x="0" id="text-entity-USERS-1e82e395-936c-57a7-8ba9-b08f03574b93" class="er entityLabel">USERS</text><rect height="22" width="33.552083333333336" y="24" x="0" class="er attributeBoxOdd"/><text style="dominant-baseline: middle; font-size: 10.2px;" transform="translate(5,35)" y="0" x="0" id="text-entity-USERS-1e82e395-936c-57a7-8ba9-b08f03574b93-attr-1-type" class="er entityLabel">text</text><rect height="22" width="40.098958333333336" y="24" x="33.552083333333336" class="er attributeBoxOdd"/><text style="dominant-baseline: middle; font-size: 10.2px;" transform="translate(38.552083333333336,35)" y="0" x="0" id="text-entity-USERS-1e82e395-936c-57a7-8ba9-b08f03574b93-attr-1-name" class="er entityLabel">id</text><rect height="22" width="26.348958333333332" y="24" x="73.65104166666667" class="er attributeBoxOdd"/><text style="dominant-baseline: middle; font-size: 10.2px;" transform="translate(78.65104166666667,35)" y="0" x="0" id="text-entity-USERS-1e82e395-936c-57a7-8ba9-b08f03574b93-attr-1-key" class="er entityLabel">PK</text><rect height="22" width="33.552083333333336" y="46" x="0" class="er attributeBoxEven"/><text style="dominant-baseline: middle; font-size: 10.2px;" transform="translate(5,57)" y="0" x="0" id="text-entity-USERS-1e82e395-936c-57a7-8ba9-b08f03574b93-attr-2-type" class="er entityLabel">text</text><rect height="22" width="40.098958333333336" y="46" x="33.552083333333336" class="er attributeBoxEven"/><text style="dominant-baseline: middle; font-size: 10.2px;" transform="translate(38.552083333333336,57)" y="0" x="0" id="text-entity-USERS-1e82e395-936c-57a7-8ba9-b08f03574b93-attr-2-name" class="er entityLabel">email</text><rect height="22" width="26.348958333333332" y="46" x="73.65104166666667" class="er attributeBoxEven"/><text style="dominant-baseline: middle; font-size: 10.2px;" transform="translate(78.65104166666667,57)" y="0" x="0" id="text-entity-USERS-1e82e395-936c-57a7-8ba9-b08f03574b93-attr-2-key" class="er entityLabel"/></g><g transform="translate(568.87109375,20 )" id="entity-OPERATORS-a7b4a91e-712a-5ebf-8f92-7c826e749f49"><rect height="90.091796875" width="181.265625" y="0" x="0" class="er entityBox"/><text style="dominant-baseline: middle; text-anchor: middle; font-size: 12px;" transform="translate(90.6328125,12)" y="0" x="0" id="text-entity-OPERATORS-a7b4a91e-712a-5ebf-8f92-7c826e749f49" class="er entityLabel">OPERATORS</text><rect height="22" width="29.75" y="24" x="0" class="er attributeBoxOdd"/><text style="dominant-baseline: middle; font-size: 10.2px;" transform="translate(5,35)" y="0" x="0" id="text-entity-OPERATORS-a7b4a91e-712a-5ebf-8f92-7c826e749f49-attr-1-type" class="er entityLabel">uuid</text><rect height="22" width="34.96875" y="24" x="29.75" class="er attributeBoxOdd"/><text style="dominant-baseline: middle; font-size: 10.2px;" transform="translate(34.75,35)" y="0" x="0" id="text-entity-OPERATORS-a7b4a91e-712a-5ebf-8f92-7c826e749f49-attr-1-name" class="er entityLabel">id</text><rect height="22" width="21.5625" y="24" x="64.71875" class="er attributeBoxOdd"/><text style="dominant-baseline: middle; font-size: 10.2px;" transform="translate(69.71875,35)" y="0" x="0" id="text-entity-OPERATORS-a7b4a91e-712a-5ebf-8f92-7c826e749f49-attr-1-key" class="er entityLabel">PK</text><rect height="22" width="94.984375" y="24" x="86.28125" class="er attributeBoxOdd"/><text style="dominant-baseline: middle; font-size: 10.2px;" transform="translate(91.28125,35)" y="0" x="0" id="text-entity-OPERATORS-a7b4a91e-712a-5ebf-8f92-7c826e749f49-attr-1-comment" class="er entityLabel"/><rect height="22" width="29.75" y="46" x="0" class="er attributeBoxEven"/><text style="dominant-baseline: middle; font-size: 10.2px;" transform="translate(5,57)" y="0" x="0" id="text-entity-OPERATORS-a7b4a91e-712a-5ebf-8f92-7c826e749f49-attr-2-type" class="er entityLabel">text</text><rect height="22" width="34.96875" y="46" x="29.75" class="er attributeBoxEven"/><text style="dominant-baseline: middle; font-size: 10.2px;" transform="translate(34.75,57)" y="0" x="0" id="text-entity-OPERATORS-a7b4a91e-712a-5ebf-8f92-7c826e749f49-attr-2-name" class="er entityLabel">name</text><rect height="22" width="21.5625" y="46" x="64.71875" class="er attributeBoxEven"/><text style="dominant-baseline: middle; font-size: 10.2px;" transform="translate(69.71875,57)" y="0" x="0" id="text-entity-OPERATORS-a7b4a91e-712a-5ebf-8f92-7c826e749f49-attr-2-key" class="er entityLabel"/><rect height="22" width="94.984375" y="46" x="86.28125" class="er attributeBoxEven"/><text style="dominant-baseline: middle; font-size: 10.2px;" transform="translate(91.28125,57)" y="0" x="0" id="text-entity-OPERATORS-a7b4a91e-712a-5ebf-8f92-7c826e749f49-attr-2-comment" class="er entityLabel"/><rect height="22.091796875" width="29.75" y="68" x="0" class="er attributeBoxOdd"/><text style="dominant-baseline: middle; font-size: 10.2px;" transform="translate(5,79.0458984375)" y="0" x="0" id="text-entity-OPERATORS-a7b4a91e-712a-5ebf-8f92-7c826e749f49-attr-3-type" class="er entityLabel">text</text><rect height="22.091796875" width="34.96875" y="68" x="29.75" class="er attributeBoxOdd"/><text style="dominant-baseline: middle; font-size: 10.2px;" transform="translate(34.75,79.0458984375)" y="0" x="0" id="text-entity-OPERATORS-a7b4a91e-712a-5ebf-8f92-7c826e749f49-attr-3-name" class="er entityLabel">size</text><rect height="22.091796875" width="21.5625" y="68" x="64.71875" class="er attributeBoxOdd"/><text style="dominant-baseline: middle; font-size: 10.2px;" transform="translate(69.71875,79.0458984375)" y="0" x="0" id="text-entity-OPERATORS-a7b4a91e-712a-5ebf-8f92-7c826e749f49-attr-3-key" class="er entityLabel"/><rect height="22.091796875" width="94.984375" y="68" x="86.28125" class="er attributeBoxOdd"/><text style="dominant-baseline: middle; font-size: 10.2px;" transform="translate(91.28125,79.0458984375)" y="0" x="0" id="text-entity-OPERATORS-a7b4a91e-712a-5ebf-8f92-7c826e749f49-attr-3-comment" class="er entityLabel">ENUM: small|large</text></g><g transform="translate(141.0078125,31.0458984375 )" id="entity-AREAS-0f879a0e-8663-5dbd-8957-80225557058b"><rect height="68" width="100" y="0" x="0" class="er entityBox"/><text style="dominant-baseline: middle; text-anchor: middle; font-size: 12px;" transform="translate(50,12)" y="0" x="0" id="text-entity-AREAS-0f879a0e-8663-5dbd-8957-80225557058b" class="er entityLabel">AREAS</text><rect height="22" width="34.322916666666664" y="24" x="0" class="er attributeBoxOdd"/><text style="dominant-baseline: middle; font-size: 10.2px;" transform="translate(5,35)" y="0" x="0" id="text-entity-AREAS-0f879a0e-8663-5dbd-8957-80225557058b-attr-1-type" class="er entityLabel">uuid</text><rect height="22" width="39.541666666666664" y="24" x="34.322916666666664" class="er attributeBoxOdd"/><text style="dominant-baseline: middle; font-size: 10.2px;" transform="translate(39.322916666666664,35)" y="0" x="0" id="text-entity-AREAS-0f879a0e-8663-5dbd-8957-80225557058b-attr-1-name" class="er entityLabel">id</text><rect height="22" width="26.135416666666668" y="24" x="73.86458333333333" class="er attributeBoxOdd"/><text style="dominant-baseline: middle; font-size: 10.2px;" transform="translate(78.86458333333333,35)" y="0" x="0" id="text-entity-AREAS-0f879a0e-8663-5dbd-8957-80225557058b-attr-1-key" class="er entityLabel">PK</text><rect height="22" width="34.322916666666664" y="46" x="0" class="er attributeBoxEven"/><text style="dominant-baseline: middle; font-size: 10.2px;" transform="translate(5,57)" y="0" x="0" id="text-entity-AREAS-0f879a0e-8663-5dbd-8957-80225557058b-attr-2-type" class="er entityLabel">text</text><rect height="22" width="39.541666666666664" y="46" x="34.322916666666664" class="er attributeBoxEven"/><text style="dominant-baseline: middle; font-size: 10.2px;" transform="translate(39.322916666666664,57)" y="0" x="0" id="text-entity-AREAS-0f879a0e-8663-5dbd-8957-80225557058b-attr-2-name" class="er entityLabel">name</text><rect height="22" width="26.135416666666668" y="46" x="73.86458333333333" class="er attributeBoxEven"/><text style="dominant-baseline: middle; font-size: 10.2px;" transform="translate(78.86458333333333,57)" y="0" x="0" id="text-entity-AREAS-0f879a0e-8663-5dbd-8957-80225557058b-attr-2-key" class="er entityLabel"/></g><g transform="translate(239.640625,232.1376953125 )" id="entity-AREAOPERATORS-968ffec1-91e2-5f5e-993d-82d42136da0c"><rect height="68.09179782867432" width="125.109375" y="0" x="0" class="er entityBox"/><text style="dominant-baseline: middle; text-anchor: middle; font-size: 12px;" transform="translate(62.5546875,12)" y="0" x="0" id="text-entity-AREAOPERATORS-968ffec1-91e2-5f5e-993d-82d42136da0c" class="er entityLabel">AREA_OPERATORS</text><rect height="22" width="33.302083333333336" y="24" x="0" class="er attributeBoxOdd"/><text style="dominant-baseline: middle; font-size: 10.2px;" transform="translate(5,35)" y="0" x="0" id="text-entity-AREAOPERATORS-968ffec1-91e2-5f5e-993d-82d42136da0c-attr-1-type" class="er entityLabel">uuid</text><rect height="22" width="67.02083333333333" y="24" x="33.302083333333336" class="er attributeBoxOdd"/><text style="dominant-baseline: middle; font-size: 10.2px;" transform="translate(38.302083333333336,35)" y="0" x="0" id="text-entity-AREAOPERATORS-968ffec1-91e2-5f5e-993d-82d42136da0c-attr-1-name" class="er entityLabel">area_id</text><rect height="22" width="24.786458333333332" y="24" x="100.32291666666666" class="er attributeBoxOdd"/><text style="dominant-baseline: middle; font-size: 10.2px;" transform="translate(105.32291666666666,35)" y="0" x="0" id="text-entity-AREAOPERATORS-968ffec1-91e2-5f5e-993d-82d42136da0c-attr-1-key" class="er entityLabel">FK</text><rect height="22.091797828674316" width="33.302083333333336" y="46" x="0" class="er attributeBoxEven"/><text style="dominant-baseline: middle; font-size: 10.2px;" transform="translate(5,57.04589891433716)" y="0" x="0" id="text-entity-AREAOPERATORS-968ffec1-91e2-5f5e-993d-82d42136da0c-attr-2-type" class="er entityLabel">uuid</text><rect height="22.091797828674316" width="67.02083333333333" y="46" x="33.302083333333336" class="er attributeBoxEven"/><text style="dominant-baseline: middle; font-size: 10.2px;" transform="translate(38.302083333333336,57.04589891433716)" y="0" x="0" id="text-entity-AREAOPERATORS-968ffec1-91e2-5f5e-993d-82d42136da0c-attr-2-name" class="er entityLabel">operator_id</text><rect height="22.091797828674316" width="24.786458333333332" y="46" x="100.32291666666666" class="er attributeBoxEven"/><text style="dominant-baseline: middle; font-size: 10.2px;" transform="translate(105.32291666666666,57.04589891433716)" y="0" x="0" id="text-entity-AREAOPERATORS-968ffec1-91e2-5f5e-993d-82d42136da0c-attr-2-key" class="er entityLabel">FK</text></g><g transform="translate(759.5859375,210.1376953125 )" id="entity-MEMBERSHIPS-0c7337db-2fa0-5fcf-871b-018d72ed08c8"><rect height="112.09179782867432" width="114.453125" y="0" x="0" class="er entityBox"/><text style="dominant-baseline: middle; text-anchor: middle; font-size: 12px;" transform="translate(57.2265625,12)" y="0" x="0" id="text-entity-MEMBERSHIPS-0c7337db-2fa0-5fcf-871b-018d72ed08c8" class="er entityLabel">MEMBERSHIPS</text><rect height="22" width="29.75" y="24" x="0" class="er attributeBoxOdd"/><text style="dominant-baseline: middle; font-size: 10.2px;" transform="translate(5,35)" y="0" x="0" id="text-entity-MEMBERSHIPS-0c7337db-2fa0-5fcf-871b-018d72ed08c8-attr-1-type" class="er entityLabel">text</text><rect height="22" width="63.46875" y="24" x="29.75" class="er attributeBoxOdd"/><text style="dominant-baseline: middle; font-size: 10.2px;" transform="translate(34.75,35)" y="0" x="0" id="text-entity-MEMBERSHIPS-0c7337db-2fa0-5fcf-871b-018d72ed08c8-attr-1-name" class="er entityLabel">user_id</text><rect height="22" width="21.234375" y="24" x="93.21875" class="er attributeBoxOdd"/><text style="dominant-baseline: middle; font-size: 10.2px;" transform="translate(98.21875,35)" y="0" x="0" id="text-entity-MEMBERSHIPS-0c7337db-2fa0-5fcf-871b-018d72ed08c8-attr-1-key" class="er entityLabel">FK</text><rect height="22" width="29.75" y="46" x="0" class="er attributeBoxEven"/><text style="dominant-baseline: middle; font-size: 10.2px;" transform="translate(5,57)" y="0" x="0" id="text-entity-MEMBERSHIPS-0c7337db-2fa0-5fcf-871b-018d72ed08c8-attr-2-type" class="er entityLabel">text</text><rect height="22" width="63.46875" y="46" x="29.75" class="er attributeBoxEven"/><text style="dominant-baseline: middle; font-size: 10.2px;" transform="translate(34.75,57)" y="0" x="0" id="text-entity-MEMBERSHIPS-0c7337db-2fa0-5fcf-871b-018d72ed08c8-attr-2-name" class="er entityLabel">role</text><rect height="22" width="21.234375" y="46" x="93.21875" class="er attributeBoxEven"/><text style="dominant-baseline: middle; font-size: 10.2px;" transform="translate(98.21875,57)" y="0" x="0" id="text-entity-MEMBERSHIPS-0c7337db-2fa0-5fcf-871b-018d72ed08c8-attr-2-key" class="er entityLabel"/><rect height="22.091797828674316" width="29.75" y="68" x="0" class="er attributeBoxOdd"/><text style="dominant-baseline: middle; font-size: 10.2px;" transform="translate(5,79.04589891433716)" y="0" x="0" id="text-entity-MEMBERSHIPS-0c7337db-2fa0-5fcf-871b-018d72ed08c8-attr-3-type" class="er entityLabel">uuid</text><rect height="22.091797828674316" width="63.46875" y="68" x="29.75" class="er attributeBoxOdd"/><text style="dominant-baseline: middle; font-size: 10.2px;" transform="translate(34.75,79.04589891433716)" y="0" x="0" id="text-entity-MEMBERSHIPS-0c7337db-2fa0-5fcf-871b-018d72ed08c8-attr-3-name" class="er entityLabel">operator_id</text><rect height="22.091797828674316" width="21.234375" y="68" x="93.21875" class="er attributeBoxOdd"/><text style="dominant-baseline: middle; font-size: 10.2px;" transform="translate(98.21875,79.04589891433716)" y="0" x="0" id="text-entity-MEMBERSHIPS-0c7337db-2fa0-5fcf-871b-018d72ed08c8-attr-3-key" class="er entityLabel">FK</text><rect height="22" width="29.75" y="90.09179782867432" x="0" class="er attributeBoxEven"/><text style="dominant-baseline: middle; font-size: 10.2px;" transform="translate(5,101.09179782867432)" y="0" x="0" id="text-entity-MEMBERSHIPS-0c7337db-2fa0-5fcf-871b-018d72ed08c8-attr-4-type" class="er entityLabel">uuid</text><rect height="22" width="63.46875" y="90.09179782867432" x="29.75" class="er attributeBoxEven"/><text style="dominant-baseline: middle; font-size: 10.2px;" transform="translate(34.75,101.09179782867432)" y="0" x="0" id="text-entity-MEMBERSHIPS-0c7337db-2fa0-5fcf-871b-018d72ed08c8-attr-4-name" class="er entityLabel">area_id</text><rect height="22" width="21.234375" y="90.09179782867432" x="93.21875" class="er attributeBoxEven"/><text style="dominant-baseline: middle; font-size: 10.2px;" transform="translate(98.21875,101.09179782867432)" y="0" x="0" id="text-entity-MEMBERSHIPS-0c7337db-2fa0-5fcf-871b-018d72ed08c8-attr-4-key" class="er entityLabel">FK</text></g><g transform="translate(544.8046875,221.1376953125 )" id="entity-VESSELS-4829ff27-0bb9-59cd-98c0-07b6024ac76b"><rect height="90.09179782867432" width="114.78125" y="0" x="0" class="er entityBox"/><text style="dominant-baseline: middle; text-anchor: middle; font-size: 12px;" transform="translate(57.390625,12)" y="0" x="0" id="text-entity-VESSELS-4829ff27-0bb9-59cd-98c0-07b6024ac76b" class="er entityLabel">VESSELS</text><rect height="22" width="29.75" y="24" x="0" class="er attributeBoxOdd"/><text style="dominant-baseline: middle; font-size: 10.2px;" transform="translate(5,35)" y="0" x="0" id="text-entity-VESSELS-4829ff27-0bb9-59cd-98c0-07b6024ac76b-attr-1-type" class="er entityLabel">uuid</text><rect height="22" width="63.46875" y="24" x="29.75" class="er attributeBoxOdd"/><text style="dominant-baseline: middle; font-size: 10.2px;" transform="translate(34.75,35)" y="0" x="0" id="text-entity-VESSELS-4829ff27-0bb9-59cd-98c0-07b6024ac76b-attr-1-name" class="er entityLabel">id</text><rect height="22" width="21.5625" y="24" x="93.21875" class="er attributeBoxOdd"/><text style="dominant-baseline: middle; font-size: 10.2px;" transform="translate(98.21875,35)" y="0" x="0" id="text-entity-VESSELS-4829ff27-0bb9-59cd-98c0-07b6024ac76b-attr-1-key" class="er entityLabel">PK</text><rect height="22.091797828674316" width="29.75" y="46" x="0" class="er attributeBoxEven"/><text style="dominant-baseline: middle; font-size: 10.2px;" transform="translate(5,57.04589891433716)" y="0" x="0" id="text-entity-VESSELS-4829ff27-0bb9-59cd-98c0-07b6024ac76b-attr-2-type" class="er entityLabel">uuid</text><rect height="22.091797828674316" width="63.46875" y="46" x="29.75" class="er attributeBoxEven"/><text style="dominant-baseline: middle; font-size: 10.2px;" transform="translate(34.75,57.04589891433716)" y="0" x="0" id="text-entity-VESSELS-4829ff27-0bb9-59cd-98c0-07b6024ac76b-attr-2-name" class="er entityLabel">operator_id</text><rect height="22.091797828674316" width="21.5625" y="46" x="93.21875" class="er attributeBoxEven"/><text style="dominant-baseline: middle; font-size: 10.2px;" transform="translate(98.21875,57.04589891433716)" y="0" x="0" id="text-entity-VESSELS-4829ff27-0bb9-59cd-98c0-07b6024ac76b-attr-2-key" class="er entityLabel">FK</text><rect height="22" width="29.75" y="68.09179782867432" x="0" class="er attributeBoxOdd"/><text style="dominant-baseline: middle; font-size: 10.2px;" transform="translate(5,79.09179782867432)" y="0" x="0" id="text-entity-VESSELS-4829ff27-0bb9-59cd-98c0-07b6024ac76b-attr-3-type" class="er entityLabel">text</text><rect height="22" width="63.46875" y="68.09179782867432" x="29.75" class="er attributeBoxOdd"/><text style="dominant-baseline: middle; font-size: 10.2px;" transform="translate(34.75,79.09179782867432)" y="0" x="0" id="text-entity-VESSELS-4829ff27-0bb9-59cd-98c0-07b6024ac76b-attr-3-name" class="er entityLabel">name</text><rect height="22" width="21.5625" y="68.09179782867432" x="93.21875" class="er attributeBoxOdd"/><text style="dominant-baseline: middle; font-size: 10.2px;" transform="translate(98.21875,79.09179782867432)" y="0" x="0" id="text-entity-VESSELS-4829ff27-0bb9-59cd-98c0-07b6024ac76b-attr-3-key" class="er entityLabel"/></g><g transform="translate(20,210.091796875 )" id="entity-ROUTES-6e186a94-a505-5eb8-a5f5-632e931f5628"><rect height="112.18359565734863" width="119.640625" y="0" x="0" class="er entityBox"/><text style="dominant-baseline: middle; text-anchor: middle; font-size: 12px;" transform="translate(59.8203125,12)" y="0" x="0" id="text-entity-ROUTES-6e186a94-a505-5eb8-a5f5-632e931f5628" class="er entityLabel">ROUTES</text><rect height="22" width="34.609375" y="24" x="0" class="er attributeBoxOdd"/><text style="dominant-baseline: middle; font-size: 10.2px;" transform="translate(5,35)" y="0" x="0" id="text-entity-ROUTES-6e186a94-a505-5eb8-a5f5-632e931f5628-attr-1-type" class="er entityLabel">uuid</text><rect height="22" width="63.46875" y="24" x="34.609375" class="er attributeBoxOdd"/><text style="dominant-baseline: middle; font-size: 10.2px;" transform="translate(39.609375,35)" y="0" x="0" id="text-entity-ROUTES-6e186a94-a505-5eb8-a5f5-632e931f5628-attr-1-name" class="er entityLabel">id</text><rect height="22" width="21.5625" y="24" x="98.078125" class="er attributeBoxOdd"/><text style="dominant-baseline: middle; font-size: 10.2px;" transform="translate(103.078125,35)" y="0" x="0" id="text-entity-ROUTES-6e186a94-a505-5eb8-a5f5-632e931f5628-attr-1-key" class="er entityLabel">PK</text><rect height="22.091797828674316" width="34.609375" y="46" x="0" class="er attributeBoxEven"/><text style="dominant-baseline: middle; font-size: 10.2px;" transform="translate(5,57.04589891433716)" y="0" x="0" id="text-entity-ROUTES-6e186a94-a505-5eb8-a5f5-632e931f5628-attr-2-type" class="er entityLabel">uuid</text><rect height="22.091797828674316" width="63.46875" y="46" x="34.609375" class="er attributeBoxEven"/><text style="dominant-baseline: middle; font-size: 10.2px;" transform="translate(39.609375,57.04589891433716)" y="0" x="0" id="text-entity-ROUTES-6e186a94-a505-5eb8-a5f5-632e931f5628-attr-2-name" class="er entityLabel">operator_id</text><rect height="22.091797828674316" width="21.5625" y="46" x="98.078125" class="er attributeBoxEven"/><text style="dominant-baseline: middle; font-size: 10.2px;" transform="translate(103.078125,57.04589891433716)" y="0" x="0" id="text-entity-ROUTES-6e186a94-a505-5eb8-a5f5-632e931f5628-attr-2-key" class="er entityLabel">FK</text><rect height="22" width="34.609375" y="68.09179782867432" x="0" class="er attributeBoxOdd"/><text style="dominant-baseline: middle; font-size: 10.2px;" transform="translate(5,79.09179782867432)" y="0" x="0" id="text-entity-ROUTES-6e186a94-a505-5eb8-a5f5-632e931f5628-attr-3-type" class="er entityLabel">uuid</text><rect height="22" width="63.46875" y="68.09179782867432" x="34.609375" class="er attributeBoxOdd"/><text style="dominant-baseline: middle; font-size: 10.2px;" transform="translate(39.609375,79.09179782867432)" y="0" x="0" id="text-entity-ROUTES-6e186a94-a505-5eb8-a5f5-632e931f5628-attr-3-name" class="er entityLabel">area_id</text><rect height="22" width="21.5625" y="68.09179782867432" x="98.078125" class="er attributeBoxOdd"/><text style="dominant-baseline: middle; font-size: 10.2px;" transform="translate(103.078125,79.09179782867432)" y="0" x="0" id="text-entity-ROUTES-6e186a94-a505-5eb8-a5f5-632e931f5628-attr-3-key" class="er entityLabel">FK</text><rect height="22.091797828674316" width="34.609375" y="90.09179782867432" x="0" class="er attributeBoxEven"/><text style="dominant-baseline: middle; font-size: 10.2px;" transform="translate(5,101.13769674301147)" y="0" x="0" id="text-entity-ROUTES-6e186a94-a505-5eb8-a5f5-632e931f5628-attr-4-type" class="er entityLabel">jsonb</text><rect height="22.091797828674316" width="63.46875" y="90.09179782867432" x="34.609375" class="er attributeBoxEven"/><text style="dominant-baseline: middle; font-size: 10.2px;" transform="translate(39.609375,101.13769674301147)" y="0" x="0" id="text-entity-ROUTES-6e186a94-a505-5eb8-a5f5-632e931f5628-attr-4-name" class="er entityLabel">name_i18n</text><rect height="22.091797828674316" width="21.5625" y="90.09179782867432" x="98.078125" class="er attributeBoxEven"/><text style="dominant-baseline: middle; font-size: 10.2px;" transform="translate(103.078125,101.13769674301147)" y="0" x="0" id="text-entity-ROUTES-6e186a94-a505-5eb8-a5f5-632e931f5628-attr-4-key" class="er entityLabel"/></g><g transform="translate(516.3828125,422.275390625 )" id="entity-TRIPS-48924303-62b9-521d-b3b9-487488523eb5"><rect height="200.36719131469727" width="171.625" y="0" x="0" class="er entityBox"/><text style="dominant-baseline: middle; text-anchor: middle; font-size: 12px;" transform="translate(85.8125,12)" y="0" x="0" id="text-entity-TRIPS-48924303-62b9-521d-b3b9-487488523eb5" class="er entityLabel">TRIPS</text><rect height="22" width="67.5625" y="24" x="0" class="er attributeBoxOdd"/><text style="dominant-baseline: middle; font-size: 10.2px;" transform="translate(5,35)" y="0" x="0" id="text-entity-TRIPS-48924303-62b9-521d-b3b9-487488523eb5-attr-1-type" class="er entityLabel">uuid</text><rect height="22" width="82.5" y="24" x="67.5625" class="er attributeBoxOdd"/><text style="dominant-baseline: middle; font-size: 10.2px;" transform="translate(72.5625,35)" y="0" x="0" id="text-entity-TRIPS-48924303-62b9-521d-b3b9-487488523eb5-attr-1-name" class="er entityLabel">id</text><rect height="22" width="21.5625" y="24" x="150.0625" class="er attributeBoxOdd"/><text style="dominant-baseline: middle; font-size: 10.2px;" transform="translate(155.0625,35)" y="0" x="0" id="text-entity-TRIPS-48924303-62b9-521d-b3b9-487488523eb5-attr-1-key" class="er entityLabel">PK</text><rect height="22" width="67.5625" y="46" x="0" class="er attributeBoxEven"/><text style="dominant-baseline: middle; font-size: 10.2px;" transform="translate(5,57)" y="0" x="0" id="text-entity-TRIPS-48924303-62b9-521d-b3b9-487488523eb5-attr-2-type" class="er entityLabel">uuid</text><rect height="22" width="82.5" y="46" x="67.5625" class="er attributeBoxEven"/><text style="dominant-baseline: middle; font-size: 10.2px;" transform="translate(72.5625,57)" y="0" x="0" id="text-entity-TRIPS-48924303-62b9-521d-b3b9-487488523eb5-attr-2-name" class="er entityLabel">vessel_id</text><rect height="22" width="21.5625" y="46" x="150.0625" class="er attributeBoxEven"/><text style="dominant-baseline: middle; font-size: 10.2px;" transform="translate(155.0625,57)" y="0" x="0" id="text-entity-TRIPS-48924303-62b9-521d-b3b9-487488523eb5-attr-2-key" class="er entityLabel">FK</text><rect height="22" width="67.5625" y="68" x="0" class="er attributeBoxOdd"/><text style="dominant-baseline: middle; font-size: 10.2px;" transform="translate(5,79)" y="0" x="0" id="text-entity-TRIPS-48924303-62b9-521d-b3b9-487488523eb5-attr-3-type" class="er entityLabel">uuid</text><rect height="22" width="82.5" y="68" x="67.5625" class="er attributeBoxOdd"/><text style="dominant-baseline: middle; font-size: 10.2px;" transform="translate(72.5625,79)" y="0" x="0" id="text-entity-TRIPS-48924303-62b9-521d-b3b9-487488523eb5-attr-3-name" class="er entityLabel">route_id</text><rect height="22" width="21.5625" y="68" x="150.0625" class="er attributeBoxOdd"/><text style="dominant-baseline: middle; font-size: 10.2px;" transform="translate(155.0625,79)" y="0" x="0" id="text-entity-TRIPS-48924303-62b9-521d-b3b9-487488523eb5-attr-3-key" class="er entityLabel">FK</text><rect height="22.091797828674316" width="67.5625" y="90" x="0" class="er attributeBoxEven"/><text style="dominant-baseline: middle; font-size: 10.2px;" transform="translate(5,101.04589891433716)" y="0" x="0" id="text-entity-TRIPS-48924303-62b9-521d-b3b9-487488523eb5-attr-4-type" class="er entityLabel">uuid</text><rect height="22.091797828674316" width="82.5" y="90" x="67.5625" class="er attributeBoxEven"/><text style="dominant-baseline: middle; font-size: 10.2px;" transform="translate(72.5625,101.04589891433716)" y="0" x="0" id="text-entity-TRIPS-48924303-62b9-521d-b3b9-487488523eb5-attr-4-name" class="er entityLabel">operator_id</text><rect height="22.091797828674316" width="21.5625" y="90" x="150.0625" class="er attributeBoxEven"/><text style="dominant-baseline: middle; font-size: 10.2px;" transform="translate(155.0625,101.04589891433716)" y="0" x="0" id="text-entity-TRIPS-48924303-62b9-521d-b3b9-487488523eb5-attr-4-key" class="er entityLabel">FK</text><rect height="22" width="67.5625" y="112.09179782867432" x="0" class="er attributeBoxOdd"/><text style="dominant-baseline: middle; font-size: 10.2px;" transform="translate(5,123.09179782867432)" y="0" x="0" id="text-entity-TRIPS-48924303-62b9-521d-b3b9-487488523eb5-attr-5-type" class="er entityLabel">uuid</text><rect height="22" width="82.5" y="112.09179782867432" x="67.5625" class="er attributeBoxOdd"/><text style="dominant-baseline: middle; font-size: 10.2px;" transform="translate(72.5625,123.09179782867432)" y="0" x="0" id="text-entity-TRIPS-48924303-62b9-521d-b3b9-487488523eb5-attr-5-name" class="er entityLabel">area_id</text><rect height="22" width="21.5625" y="112.09179782867432" x="150.0625" class="er attributeBoxOdd"/><text style="dominant-baseline: middle; font-size: 10.2px;" transform="translate(155.0625,123.09179782867432)" y="0" x="0" id="text-entity-TRIPS-48924303-62b9-521d-b3b9-487488523eb5-attr-5-key" class="er entityLabel">FK</text><rect height="22.091797828674316" width="67.5625" y="134.09179782867432" x="0" class="er attributeBoxEven"/><text style="dominant-baseline: middle; font-size: 10.2px;" transform="translate(5,145.13769674301147)" y="0" x="0" id="text-entity-TRIPS-48924303-62b9-521d-b3b9-487488523eb5-attr-6-type" class="er entityLabel">text</text><rect height="22.091797828674316" width="82.5" y="134.09179782867432" x="67.5625" class="er attributeBoxEven"/><text style="dominant-baseline: middle; font-size: 10.2px;" transform="translate(72.5625,145.13769674301147)" y="0" x="0" id="text-entity-TRIPS-48924303-62b9-521d-b3b9-487488523eb5-attr-6-name" class="er entityLabel">captain_user_id</text><rect height="22.091797828674316" width="21.5625" y="134.09179782867432" x="150.0625" class="er attributeBoxEven"/><text style="dominant-baseline: middle; font-size: 10.2px;" transform="translate(155.0625,145.13769674301147)" y="0" x="0" id="text-entity-TRIPS-48924303-62b9-521d-b3b9-487488523eb5-attr-6-key" class="er entityLabel">FK</text><rect height="22.091797828674316" width="67.5625" y="156.18359565734863" x="0" class="er attributeBoxOdd"/><text style="dominant-baseline: middle; font-size: 10.2px;" transform="translate(5,167.2294945716858)" y="0" x="0" id="text-entity-TRIPS-48924303-62b9-521d-b3b9-487488523eb5-attr-7-type" class="er entityLabel">timestamptz</text><rect height="22.091797828674316" width="82.5" y="156.18359565734863" x="67.5625" class="er attributeBoxOdd"/><text style="dominant-baseline: middle; font-size: 10.2px;" transform="translate(72.5625,167.2294945716858)" y="0" x="0" id="text-entity-TRIPS-48924303-62b9-521d-b3b9-487488523eb5-attr-7-name" class="er entityLabel">start_time</text><rect height="22.091797828674316" width="21.5625" y="156.18359565734863" x="150.0625" class="er attributeBoxOdd"/><text style="dominant-baseline: middle; font-size: 10.2px;" transform="translate(155.0625,167.2294945716858)" y="0" x="0" id="text-entity-TRIPS-48924303-62b9-521d-b3b9-487488523eb5-attr-7-key" class="er entityLabel"/><rect height="22.091797828674316" width="67.5625" y="178.27539348602295" x="0" class="er attributeBoxEven"/><text style="dominant-baseline: middle; font-size: 10.2px;" transform="translate(5,189.3212924003601)" y="0" x="0" id="text-entity-TRIPS-48924303-62b9-521d-b3b9-487488523eb5-attr-8-type" class="er entityLabel">timestamptz</text><rect height="22.091797828674316" width="82.5" y="178.27539348602295" x="67.5625" class="er attributeBoxEven"/><text style="dominant-baseline: middle; font-size: 10.2px;" transform="translate(72.5625,189.3212924003601)" y="0" x="0" id="text-entity-TRIPS-48924303-62b9-521d-b3b9-487488523eb5-attr-8-name" class="er entityLabel">end_time</text><rect height="22.091797828674316" width="21.5625" y="178.27539348602295" x="150.0625" class="er attributeBoxEven"/><text style="dominant-baseline: middle; font-size: 10.2px;" transform="translate(155.0625,189.3212924003601)" y="0" x="0" id="text-entity-TRIPS-48924303-62b9-521d-b3b9-487488523eb5-attr-8-key" class="er entityLabel"/></g><rect height="14" width="17.71875" y="183.50238037109375" x="985.1510620117188" class="er relationshipLabelBox"/><text style="text-anchor: middle; dominant-baseline: middle; font-size: 12px;" y="190.50238037109375" x="994.0104370117188" id="rel1" class="er relationshipLabel">has</text><rect height="14" width="35.328125" y="141.68812561035156" x="773.9762573242188" class="er relationshipLabelBox"/><text style="text-anchor: middle; dominant-baseline: middle; font-size: 12px;" y="148.68812561035156" x="791.6403198242188" id="rel2" class="er relationshipLabel">scopes</text><rect height="14" width="35.328125" y="174.71209716796875" x="478.6260986328125" class="er relationshipLabelBox"/><text style="text-anchor: middle; dominant-baseline: middle; font-size: 12px;" y="181.71209716796875" x="496.2901611328125" id="rel3" class="er relationshipLabel">scopes</text><rect height="14" width="24.4375" y="148.4657440185547" x="274.2554931640625" class="er relationshipLabelBox"/><text style="text-anchor: middle; dominant-baseline: middle; font-size: 12px;" y="155.4657440185547" x="286.4742431640625" id="rel4" class="er relationshipLabel">links</text><rect height="14" width="24.4375" y="194.13323974609375" x="534.0501708984375" class="er relationshipLabelBox"/><text style="text-anchor: middle; dominant-baseline: middle; font-size: 12px;" y="201.13323974609375" x="546.2689208984375" id="rel5" class="er relationshipLabel">links</text><rect height="14" width="26.796875" y="155.79928588867188" x="593.5902709960938" class="er relationshipLabelBox"/><text style="text-anchor: middle; dominant-baseline: middle; font-size: 12px;" y="162.79928588867188" x="606.9887084960938" id="rel6" class="er relationshipLabel">owns</text><rect height="14" width="39.046875" y="185.7699432373047" x="347.1122741699219" class="er relationshipLabelBox"/><text style="text-anchor: middle; dominant-baseline: middle; font-size: 12px;" y="192.7699432373047" x="366.6357116699219" id="rel7" class="er relationshipLabel">defines</text><rect height="14" width="56.484375" y="139.24229431152344" x="72.51690673828125" class="er relationshipLabelBox"/><text style="text-anchor: middle; dominant-baseline: middle; font-size: 12px;" y="146.24229431152344" x="100.75909423828125" id="rel8" class="er relationshipLabel">located_in</text><rect height="14" width="22.828125" y="359.75201416015625" x="590.7809448242188" class="er relationshipLabelBox"/><text style="text-anchor: middle; dominant-baseline: middle; font-size: 12px;" y="366.75201416015625" x="602.1950073242188" id="rel9" class="er relationshipLabel">uses</text><rect height="14" width="73.203125" y="422.63043212890625" x="247.36175537109375" class="er relationshipLabelBox"/><text style="text-anchor: middle; dominant-baseline: middle; font-size: 12px;" y="429.63043212890625" x="283.96331787109375" id="rel10" class="er relationshipLabel">scheduled_on</text><rect height="14" width="44.84375" y="351.5601806640625" x="921.1616821289062" class="er relationshipLabelBox"/><text style="text-anchor: middle; dominant-baseline: middle; font-size: 12px;" y="358.5601806640625" x="943.5835571289062" id="rel11" class="er relationshipLabel">captains</text></svg>